<svg width="182" height="226" viewBox="0 0 182 226" fill="none" xmlns="http://www.w3.org/2000/svg">
<g style="mix-blend-mode:screen" opacity="0.25">
<path d="M376.946 139.924C357.989 137.068 338.726 139.461 319.679 137.668C300.632 135.874 281.882 129.854 264.719 120.021C259.969 117.301 255.274 114.258 250.12 112.837C243.204 110.928 235.985 112.067 228.887 112.404C215.049 113.064 201.11 110.611 188.053 105.206C183.645 103.382 178.723 100.365 177.998 94.9492C177.071 88.0376 183.494 83.0958 189.11 80.7231C194.727 78.3504 201.468 75.4286 202.682 68.5776C203.226 65.4996 202.495 62.0187 203.916 59.3538C204.888 57.5302 206.651 56.5429 208.334 55.6915C226.983 46.2763 247.254 42.5939 267.429 41.6065C271.852 41.3899 276.411 41.5763 281.01 41.813C256.855 25.577 231.265 11.9404 204.495 1.27587C191.695 2.0718 178.864 2.26323 166.013 1.80985C139.118 0.852712 110.202 -2.22523 87.236 14.2073C84.2538 16.3432 81.2464 19.0635 80.2691 22.9928C77.846 32.69 88.4199 39.3144 96.7771 41.7879C98.097 48.513 90.5205 52.3315 84.7273 53.5304C66.038 57.4093 47.6308 63.1572 29.7777 70.6984C17.1183 76.0432 3.05854 84.5819 0.564948 100.077C-1.18812 110.979 3.80911 122.248 11.1841 129.205C18.5591 136.161 27.944 139.466 37.2333 141.577C68.8691 148.76 101.578 143.829 133.652 147.415C137.929 147.894 142.402 148.614 145.883 151.566C151.389 156.236 152.87 164.986 156.724 171.55C164.371 184.582 179.705 186.965 193.181 187.821C223.189 189.741 253.274 190.028 283.308 188.683C290.874 188.345 298.587 187.917 305.891 190.245C313.573 192.688 320.313 198.012 327.432 202.194C344.358 212.133 363.435 215.583 382.149 218.933C401.353 222.369 420.717 225.835 440.101 225.281C424.943 195.413 407.262 167.52 387.419 141.965C383.943 141.149 380.457 140.433 376.946 139.904V139.924Z" fill="white"/>
</g>
</svg>
